<?xml version="1.0" encoding="utf-8"?>
<!-- Generator: Adobe Illustrator 16.0.0, SVG Export Plug-In . SVG Version: 6.00 Build 0)  -->
<!DOCTYPE svg PUBLIC "-//W3C//DTD SVG 1.1//EN" "http://www.w3.org/Graphics/SVG/1.1/DTD/svg11.dtd">
<svg version="1.1" id="Layer_1" xmlns="http://www.w3.org/2000/svg" xmlns:xlink="http://www.w3.org/1999/xlink" x="0px" y="0px"
	 width="101.435px" height="102.393px" viewBox="0 0 101.435 102.393" enable-background="new 0 0 101.435 102.393"
	 xml:space="preserve">
<g>
	<g>
		<path fill="#FFFFFF" d="M94.637,1.881C84.842,17.712,73.402,26.85,60.608,29.011c-4.849,0.818-9.479,0.547-13.699-0.315
			C48.417,28.89,49.981,29,51.591,29c2.714,0,5.56-0.314,8.474-1.07c11.203-2.906,20.68-11.671,28.168-26.049H85.87
			c-7.094,13.147-15.918,21.187-26.252,23.875c-15.993,4.158-30.277-6.072-30.482-6.219c-2.791-1.729-5.708-3.766-8.217-5.736
			C12.635,7.305,6.356,3.738,2.544,1.888v2.459c3.185,1.609,7.883,4.327,13.823,8.708c-3.908-1.629-8.745-2.891-13.823-2.41v2.25
			c11.187-1.112,21.544,7.071,21.625,7.135c0.598,0.532,13.361,11.715,30.389,11.715c2.054,0,4.174-0.164,6.338-0.528
			C74.579,28.915,86.725,19.1,97,2.045c0.029-0.051,0.037-0.109,0.06-0.164H94.637z"/>
		<path fill="#FFFFFF" d="M98.46,11.832V8.439C85.104,25.789,69.745,33.634,52.731,31.763c-13.658-1.505-23.337-9.063-23.488-9.181
			c-10.799-7.429-20.773-6.676-26.698-5.093v2.344c5.072-1.417,13.75-2.348,23.189,3.109c-10.534-2.894-18.44,0.172-23.189,3.22
			v2.519c4.833-3.5,14.356-7.753,27.944-1.692C18.009,24.869,8.1,30.048,2.544,34.1v2.699c6.229-4.89,20.322-12.943,38.061-4.147
			l0.196,0.098c3.412,1.704,32.412,15.292,57.659-0.899v-2.599c-12.716,8.621-26.565,9.162-37.449,7.448
			c0.438,0.012,0.878,0.022,1.325,0.022c10.396-0.001,23.432-3.245,36.124-15.188V18.57C86.499,30.489,72.775,35.744,57.603,34.243
			C69.127,34.179,84.012,29.541,98.46,11.832z"/>
		<path fill="#FFFFFF" d="M98.46,40.381v-2.396c-11.068,5.241-31.09,1.615-44.957-1.986c-0.481-0.136-0.96-0.261-1.436-0.378
			c-7.913-2.117-13.503-4.116-13.665-4.175l-0.117-0.034C22.069,27.811,9.292,36.541,2.544,42.799v2.948
			C8.52,39.808,21.322,29.95,37.824,33.583c0.282,0.102,1.046,0.374,2.196,0.761C20.185,35.011,6.792,49.04,6.62,49.224l0.025,0.03
			H9.69c4.944-4.393,20.563-16.217,40.938-11.683c1.149,0.315,2.352,0.635,3.6,0.952c1.409,0.439,2.837,0.954,4.283,1.562
			c1.098,0.47,24.691,10.472,39.95,8.42V46.25c-8.812,1.273-21.007-1.881-29.449-4.65C79.624,43.259,90.734,43.645,98.46,40.381z"/>
	</g>
	<g>
		<path fill="#FFFFFF" d="M7.362,90.072c2.143,0,3.736,1.072,4.424,2.912h-1.127c-0.535-1.277-1.662-2.073-3.297-2.073
			c-2.102,0-3.709,1.552-3.709,4.065c0,2.5,1.607,4.053,3.709,4.053c1.635,0,2.762-0.797,3.297-2.047h1.127
			c-0.688,1.813-2.281,2.885-4.424,2.885c-2.664,0-4.697-2.006-4.697-4.891S4.698,90.072,7.362,90.072z"/>
		<path fill="#FFFFFF" d="M26.675,97.504h-4.368l-0.838,2.281h-1.017l3.503-9.479h1.085l3.489,9.479h-1.017L26.675,97.504z
			 M24.491,91.516l-1.896,5.192h3.792L24.491,91.516z"/>
		<path fill="#FFFFFF" d="M40.384,95.691h-1.937v4.094h-0.962v-9.603h2.898c2.225,0,3.241,1.182,3.241,2.761
			C43.625,94.496,42.637,95.691,40.384,95.691z M40.384,94.867c1.62,0,2.253-0.742,2.253-1.924c0-1.236-0.633-1.95-2.253-1.95
			h-1.937v3.874H40.384z"/>
		<path fill="#FFFFFF" d="M52.651,90.183h0.961v9.603h-0.961V90.183z"/>
		<path fill="#FFFFFF" d="M62.527,90.183h6.306v0.797h-2.665v8.806h-0.962v-8.806h-2.679V90.183z"/>
		<path fill="#FFFFFF" d="M83.337,97.504h-4.368l-0.838,2.281h-1.018l3.504-9.479h1.085l3.489,9.479h-1.017L83.337,97.504z
			 M81.153,91.516l-1.895,5.192h3.791L81.153,91.516z"/>
		<path fill="#FFFFFF" d="M95.11,90.183v8.819h3.447v0.783h-4.409v-9.603H95.11z"/>
	</g>
	<g>
		<path fill="#FFFFFF" d="M2.443,61.934h10.29v3.085h-6.44v3.333h4.819v2.994H6.292v6.395h-3.85V61.934z"/>
		<path fill="#FFFFFF" d="M26.153,74.948h-5.898l-0.946,2.792h-4.03l5.719-15.807h4.459l5.719,15.807h-4.075L26.153,74.948z
			 M23.204,66.189l-1.937,5.787h3.896L23.204,66.189z"/>
		<path fill="#FFFFFF" d="M38.313,61.934v12.835h5.044v2.972h-8.894V61.934H38.313z"/>
		<path fill="#FFFFFF" d="M54.052,61.754c3.761,0,6.598,2.116,7.499,5.539h-4.233c-0.653-1.352-1.847-2.027-3.311-2.027
			c-2.364,0-3.985,1.757-3.985,4.549s1.621,4.549,3.985,4.549c1.464,0,2.657-0.676,3.311-2.027h4.233
			c-0.901,3.423-3.738,5.518-7.499,5.518c-4.661,0-7.948-3.311-7.948-8.039S49.391,61.754,54.052,61.754z"/>
		<path fill="#FFFFFF" d="M72.945,77.898c-4.481,0-8.128-3.355-8.128-8.106s3.646-8.083,8.128-8.083
			c4.503,0,8.083,3.332,8.083,8.083S77.425,77.898,72.945,77.898z M72.945,74.386c2.522,0,4.165-1.824,4.165-4.594
			c0-2.814-1.643-4.593-4.165-4.593c-2.567,0-4.188,1.778-4.188,4.593C68.756,72.562,70.377,74.386,72.945,74.386z"/>
		<path fill="#FFFFFF" d="M98.863,61.934V77.74h-3.851l-6.439-9.75v9.75h-3.85V61.934h3.85l6.439,9.795v-9.795H98.863z"/>
	</g>
</g>
</svg>
